<svg xmlns="http://www.w3.org/2000/svg" width="136pt" height="136pt" viewBox="0 0 136 136"><path fill="#624c27" d="M16 16c22.67 0 45.33 0 67.99.01C78.62 21.34 73.28 26.69 67.88 32c-11.96 0-23.92-.01-35.88 0-.01 12 .01 24-.01 36-5.32 5.3-10.64 10.6-15.98 15.89C15.99 61.26 16 38.63 16 16zm87.95 51.9c5.32-5.37 10.69-10.68 16.04-16.02.02 22.71.01 45.41 0 68.12-22.65 0-45.31.01-67.97-.01 5.33-5.33 10.65-10.67 15.99-15.99 12-.01 23.99.01 35.99 0 .04-12.04-.05-24.07-.05-36.1z"/><path fill="#c8aa6e" d="M100.02 16H120v19.99C92 64 64 92 35.99 120H16v-19.99C44 72 72 43.99 100.02 16z"/><path d="M21.482 66.47V21.372h90.344L101.191 31.94 90.557 42.508l-23.962.008-23.96.008-.027 24.071-.027 24.072-10.55 10.45-10.549 10.452zM80.2 149.385l10.575-10.576H138.7V90.742l4.317-4.461c2.374-2.454 7.133-7.213 10.576-10.576l6.259-6.115V159.961H69.627Z" style="fill:#614a23;stroke:none;stroke-width:.220332;fill-opacity:1" transform="scale(.75)"/><path d="M21.482 146.686V133.41l56.02-56.02 56.02-56.019h26.329V47.923l-56.02 56.019-56.02 56.02H21.483Z" style="fill:#c8aa6d;stroke:none;stroke-width:.220332;fill-opacity:1" transform="scale(.75)"/></svg>