<svg xmlns="http://www.w3.org/2000/svg" width="136pt" height="136pt" viewBox="0 0 136 136"><g fill="#c8aa6e"><path d="M52.21 12.03c10.33-.1 20.66.06 30.99-.08 1.71 2.62 3.2 5.37 4.79 8.07C81.32 28 74.68 36.01 68 43.98 61.32 36 54.66 28 48.01 19.99c1.4-2.65 2.82-5.29 4.2-7.96ZM0 36.3c14.64-.68 29.33-.11 43.99-.3C48 40 52 44 56 48.01c-2.67 9.32-5.32 18.66-8.01 27.98-6.66-2.65-13.32-5.32-19.98-7.99 3.97-5.35 8.02-10.63 11.96-15.99-5.01-.08-10.15.4-15-1.14C15.58 48.12 7.75 42.05 0 36.34v-.04ZM92.02 36c14.66.05 29.32-.09 43.98.07v.03c-7.3 5.9-15.1 11.53-24.1 14.5-5.11 1.85-10.59 1.34-15.91 1.41 4.01 5.32 8 10.65 11.99 15.98-6.64 2.7-13.31 5.34-19.97 8-2.69-9.32-5.34-18.65-8.01-27.98C84.01 44 88 39.99 92.02 36ZM64.01 52.11c1.36 1.26 2.7 2.55 3.99 3.89 1.32-1.33 2.65-2.65 3.99-3.97 4.04 19.97 7.97 39.96 12.02 59.92-5.31 4.05-10.66 8.07-16.04 12.03-5.32-4.01-10.67-7.97-15.98-12.01 4.04-19.94 7.96-39.92 12.02-59.86Z" opacity="1.00"/></g><path d="M50.676 95.91c-7.15-2.862-13.032-5.228-13.071-5.258-.04-.03 3.505-4.823 7.877-10.65 4.372-5.826 7.949-10.633 7.949-10.681 0-.049-3.297-.14-7.327-.2-8.153-.125-9.266-.269-14.016-1.808-8.41-2.725-15.917-7.054-28.953-16.692L.322 48.54l2.263-.178c1.244-.097 14.373-.198 29.174-.224l26.912-.046 7.947 7.956 7.947 7.957-5.316 18.563c-2.924 10.21-5.373 18.559-5.444 18.553-.071-.006-5.979-2.351-13.129-5.212zM77.447 42.616c-7.21-8.664-13.137-15.83-13.17-15.924-.033-.095 1.173-2.495 2.68-5.335l2.738-5.163 20.598-.056 20.598-.056 1.194 1.929a251.182 251.182 0 0 1 3.131 5.293c1.699 2.949 1.901 3.41 1.639 3.736-1.784 2.22-26.06 31.25-26.161 31.284-.076.025-6.037-7.044-13.247-15.708zM112.083 82.57l-5.316-18.564 7.979-7.985 7.979-7.985 24.677.028c13.573.015 26.652.089 29.066.163l4.388.136-1.964 1.562c-11.063 8.798-20.264 14.207-29.397 17.282-4.898 1.649-6.034 1.8-14.376 1.92-3.97.056-7.216.143-7.216.192 0 .05 3.572 4.85 7.938 10.67l7.937 10.578-.942.404c-1.43.612-25.254 10.161-25.351 10.161-.047 0-2.478-8.353-5.402-18.563z" style="fill:#a0a0a0;stroke:none;stroke-width:.220332" transform="scale(.75)"/><path d="M79.98 157.19c-5.695-4.304-10.383-7.906-10.418-8.004-.05-.142 14.652-73.817 15.605-78.202l.256-1.174.584.507c.32.278 1.5 1.4 2.622 2.492l2.039 1.986 2.643-2.637c1.454-1.45 2.644-2.575 2.644-2.501 0 .074 3.569 17.94 7.932 39.701 4.362 21.762 7.932 39.652 7.932 39.758 0 .256-20.628 15.717-21.108 15.82-.23.05-4.374-2.942-10.73-7.745zM117.474 100.747c-.081-.136-5.962-20.495-9.646-33.397l-.932-3.267 7.94-7.941 7.942-7.942 27.185.051c14.951.028 27.927.114 28.835.192l1.651.14-2.422 1.893c-9.197 7.188-17.564 12.33-24.786 15.233-2.863 1.151-6.633 2.36-8.472 2.719-1.522.296-10.011.702-15.6.746-.696.006-1.266.09-1.266.188 0 .097 3.52 4.875 7.823 10.618 4.303 5.742 7.749 10.513 7.657 10.601-.155.148-25.499 10.331-25.713 10.331-.053 0-.141-.074-.196-.165zM88.739 55.907c-2.037-2.373-20.797-24.883-23.07-27.681l-1.313-1.616 1.146-2.233c.63-1.229 1.846-3.547 2.7-5.153l1.554-2.92h17.782c9.78 0 19.02-.06 20.535-.134l2.754-.132L112.7 19.2c2.215 3.742 4.187 7.282 4.187 7.516 0 .15-15.707 19.045-23.171 27.873l-3.03 3.584zM50.797 95.84c-6.962-2.786-12.729-5.138-12.815-5.229-.086-.09 2.915-4.28 6.67-9.308C52.69 70.538 53.512 69.412 53.4 69.3c-.046-.046-3.503-.19-7.683-.318-4.887-.15-8.17-.35-9.202-.557-4.19-.843-11.325-3.687-16.352-6.518-5.47-3.08-19.557-12.887-19.14-13.324.139-.144 10.154-.244 28.9-.29l28.686-.07 7.913 7.929 7.913 7.929-1.495 5.25c-6.262 21.985-9.097 31.583-9.328 31.576-.085-.003-5.852-2.283-12.814-5.068z" style="fill:#c8aa6d;stroke:none;stroke-width:.220332;fill-opacity:1" transform="scale(.75)"/></svg>