<svg xmlns="http://www.w3.org/2000/svg" width="136pt" height="136pt" viewBox="0 0 136 136"><g fill="#59431d"><path d="M16.01 16c30.64 0 61.27-.01 91.91.01-5.32 5.33-10.65 10.66-15.98 15.98-19.98.02-39.96 0-59.94.01-.05 19.98-.12 39.95-.17 59.92-5.25 5.36-10.54 10.67-15.82 16-.02-30.64-.01-61.28 0-91.92Z" opacity="0.75"/><path d="M52.01 52c9.33 0 18.66-.01 27.99.01V80H52c0-9.33 0-18.67.01-28Z" opacity="0.75"/></g><path fill="#c8aa6e" d="M100 44.01c6.66-6.74 13.32-13.46 19.99-20.19.02 32.06 0 64.12.01 96.18-32.06-.01-64.12.02-96.18-.01C30.54 113.32 37.28 106.67 44 100h56V44.01Z" opacity="1.00"/><path d="m21.49 82.46-.008-61.088h122.173L133.08 31.948l-10.575 10.576h-79.8l-.146 14.909c-.08 8.2-.146 26.198-.146 39.995v25.087L31.955 133.03l-10.458 10.515z" style="fill:#614a23;stroke:none;stroke-width:.220332;fill-opacity:1" transform="scale(.75)"/><path d="M69.515 88.023V69.405h37.016v37.236H69.515Z" style="fill:#614a23;stroke:none;stroke-width:.220332;fill-opacity:1" transform="scale(.75)"/><path d="m45.278 146.748 13.33-13.204 37.402-.011 37.401-.012.012-37.401.011-37.401 13.206-13.33 13.205-13.33.003 63.95.003 63.952-63.952-.005-63.951-.005z" style="fill:#c8aa6d;stroke:none;stroke-width:.220332;fill-opacity:1" transform="scale(.75)"/></svg>