<svg xmlns="http://www.w3.org/2000/svg" width="136pt" height="136pt" viewBox="0 0 136 136"><g fill="#c8aa6e"><path d="M72.13 57.86C78.7 41.1 90.04 26.94 99.94 12.1 93 29.47 84.31 46.87 84.04 65.97c-.73 4.81-2.83 9.31-4 14.03-2.08-7.57-4.91-14.9-7.91-22.14ZM36.21 12.35c13.06 20.19 26.67 40.61 33.61 63.87 4.77 15.49 5.42 32.94-1.8 47.8-5.58-6.1-11.08-12.29-16.71-18.34-4.97-4.72-10.26-9.1-15.32-13.71-1.55-11.73-2.97-23.87-8.72-34.42-2.75-5.24-6.71-9.72-11.19-13.55 9.67 4.75 19.18 10.41 26.23 18.72 4.37 4.98 7.46 10.94 9.69 17.15 1.15-10.29.58-20.79-2.05-30.81-3.31-12.68-8.99-24.55-13.74-36.71ZM105.84 53.83c4.13-4 8.96-7.19 14.04-9.84-4.4 3.88-8.4 8.32-11.14 13.55-5.75 10.56-7.18 22.71-8.74 34.45-5.32 5.35-10.68 10.65-15.98 16.01.15-4.37-.25-8.84 1.02-13.1 3.39-15.08 9.48-30.18 20.8-41.07Z" opacity="1.00"/></g><path d="M80.531 153.977c-11.648-12.84-12.482-13.696-18.876-19.383-5.627-5.007-11.987-10.643-12.895-11.428-.518-.449-.675-.818-.842-1.983-.114-.788-.564-4.01-1.001-7.161-2.273-16.372-4.974-26.414-9.57-35.583-2.96-5.904-6.021-10.156-10.968-15.23-1.875-1.925-3.345-3.499-3.266-3.499.479 0 8.033 4.107 12.18 6.622 8.764 5.316 16.047 11.424 21.797 18.28 4.29 5.116 8.21 11.88 10.983 18.956.59 1.508 1.142 2.822 1.225 2.919.171.2.315-1.183.682-6.566.309-4.529.132-13.636-.354-18.178C68.05 67.005 64.824 56.46 53.451 28.88c-2.32-5.626-4.19-10.303-4.157-10.394.064-.176 6.45 9.657 11.963 18.42C76.33 60.864 85.393 78.779 91.186 96.065c4.943 14.751 6.74 25.344 6.472 38.156-.228 10.827-1.93 19.096-5.834 28.327-.576 1.363-1.097 2.478-1.157 2.478-.06 0-4.622-4.971-10.136-11.049zM105.5 102.16c-1.58-5.282-3.643-11.073-6.628-18.608l-2.556-6.454.73-1.809c1.39-3.442 4.354-9.594 6.672-13.845 4.31-7.9 8.638-14.75 16.69-26.411 2.72-3.939 6.51-9.43 8.424-12.205 1.912-2.774 3.477-4.949 3.477-4.832 0 .117-1.498 3.825-3.329 8.24-6.836 16.48-10.047 25.1-12.414 33.325-2.724 9.461-4.068 17.093-4.51 25.597-.227 4.386-.7 6.44-3.42 14.842-.915 2.831-1.665 5.28-1.665 5.44 0 .162-.076.34-.17.398-.093.058-.679-1.597-1.301-3.677zM112.184 142.404c.037-.704.113-3.512.17-6.239.11-5.235.18-5.747 1.555-11.4 2.716-11.17 5.627-19.558 9.711-27.993 6.715-13.866 15.06-24.061 26.073-31.856 2.076-1.47 8.176-5.206 8.5-5.206.096 0-1.26 1.47-3.013 3.267-4.867 4.987-7.801 8.964-10.65 14.433-5.193 9.974-7.82 19.763-10.45 38.925l-.857 6.247-10.552 10.552-10.552 10.552z" style="fill:#c8aa6d;stroke:none;stroke-width:.220332;fill-opacity:1" transform="scale(.75)"/></svg>